PathFileType	4	(X/Y/Z)	pose_F01_0-76.trc
DataRate	CameraRate	NumFrames	NumMarkers	Units	OrigDataRate	OrigDataStartFrame	OrigNumFrames
30	30	6	21	m	30	50	76
Frame#	Time	CHip			RHip			RKnee			RAnkle			RBigToe			RSmallToe			RHeel			LHip			LKnee			LAnkle			LBigToe			LSmallToe			LHeel			Neck			Nose			RShoulder			RElbow			RWrist			LShoulder			LElbow			LWrist			
		X1	Y1	Z1	X2	Y2	Z2	X3	Y3	Z3	X4	Y4	Z4	X5	Y5	Z5	X6	Y6	Z6	X7	Y7	Z7	X8	Y8	Z8	X9	Y9	Z9	X10	Y10	Z10	X11	Y11	Z11	X12	Y12	Z12	X13	Y13	Z13	X14	Y14	Z14	X15	Y15	Z15	X16	Y16	Z16	X17	Y17	Z17	X18	Y18	Z18	X19	Y19	Z19	X20	Y20	Z20	X21	Y21	Z21	
50	1.6666666666666667	-0.22569530252236292	1.8318733190864713	-0.3637751305719312	-0.24759386534226266	1.8296662113440587	-0.37512178569296584																-0.20187130318827515	1.8335189308689444	-0.3545326489332356	-0.21787932543171312	1.7297094647988895	-0.3879079804596209	-0.208282357781636	1.5851157456932816	-0.5464621006477501	-0.1928781326095453	1.5833612364396699	-0.5315549901396907	-0.18913842744403092	1.5918248455800341	-0.5316686431141493	-0.20265804162838272	1.572703508104972	-0.5463082002420341	-0.22258864621805063	1.9865947759833293	-0.3790122324686917	-0.21209422273495745	2.0373884629291843	-0.4841758059575873	-0.24824832338428598	1.9886203193069534	-0.39432491012713694	-0.2540741185124203	1.8992404841421844	-0.4189172350219013	-0.24640261833475402	1.834351606425107	-0.47030272594415345	-0.19899934279461234	1.9845804944923242	-0.36154212016569603	-0.1632724508025681	1.9284304066844724	-0.36671255479851267	-1.8256501705176804	1.8925482392244761	1.3225049860000886
51	1.7	-0.2254627561363357	1.8315787011955345	-0.36365326937116565	-0.24647309913807908	1.8283377866170312	-0.3716999290549868																-0.2035454408084133	1.8343141269533287	-0.3523841400011182	-0.2156355583940776	1.735031003932713	-0.3817969892292955	-0.208282357781636	1.5851157456932816	-0.5464621006477501	-0.1928781326095453	1.5833612364396699	-0.5315549901396907	-0.18913842744403092	1.5918248455800341	-0.5316686431141493	-0.20265804162838272	1.572703508104972	-0.5463082002420341	-0.2252242571786189	1.983615417637061	-0.370435837753917	-0.2116096149047907	2.036230585749717	-0.4765766080849823	-0.24914011483008186	1.986379585162404	-0.3966121500777836	-0.257108911754212	1.900262360239348	-0.4104311809360591	-0.25401729183131505	1.824874011023773	-0.4508022724533244	-0.205182522569356	1.9820536773850461	-0.34793804120388283	-0.16490036052309615	1.9259723800712254	-0.346128211376823	-1.8256501705176804	1.8925482392244761	1.3225049860000886
52	1.7333333333333334	-0.22646161036222529	1.8331857225133066	-0.3582510465748372	-0.24638134015371727	1.830681439834028	-0.36290339741512506																-0.20560501517992497	1.8326938877911254	-0.34993930625272024	-0.2156355583940776	1.735031003932713	-0.3817969892292955	-0.208282357781636	1.5851157456932816	-0.5464621006477501	-0.1928781326095453	1.5833612364396699	-0.5315549901396907	-0.18913842744403092	1.5918248455800341	-0.5316686431141493	-0.20265804162838272	1.572703508104972	-0.5463082002420341	-0.22602659430146774	1.9832013102665285	-0.36505248600039947	-0.21112500707462395	2.0350727085702496	-0.46897741021237727	-0.24608001038009497	1.9848528363803335	-0.386922052090161	-0.25825229510966397	1.8976159813422673	-0.4045764905622623	-0.2616319653278761	1.8153964156224385	-0.4313018189624953	-0.2090466858743206	1.9837718619677898	-0.3445963098389081	-0.16702199172712934	1.9215626256522105	-0.3441759145769759	-1.8256501705176804	1.8925482392244761	1.3225049860000886
53	1.7666666666666666	-0.22444043982750622	1.8307893976673288	-0.3513284697332242	-0.24533966823444767	1.8279928451753578	-0.359321479475691																-0.20365621188366365	1.8333591563723115	-0.34335669695787896	-0.2156355583940776	1.735031003932713	-0.3817969892292955	-0.208282357781636	1.5851157456932816	-0.5464621006477501	-0.1928781326095453	1.5833612364396699	-0.5315549901396907	-0.18913842744403092	1.5918248455800341	-0.5316686431141493	-0.20265804162838272	1.572703508104972	-0.5463082002420341	-0.2270218336772048	1.9817975525993146	-0.3596565965899098	-0.21064039924445718	2.033914831390782	-0.4613782123397723	-0.2458518207938804	1.9842462072999973	-0.37829889527004257	-0.25704386603346197	1.897116613960284	-0.4009863635256971	-0.2596341725057762	1.8205323881603408	-0.42644824384816976	-0.21102734059328246	1.9826081902999222	-0.3423180411641731	-0.16480729375766742	1.930657617013346	-0.34610657537409645	-1.8256501705176804	1.8925482392244761	1.3225049860000886
54	1.8	-0.22216033184767423	1.8318882812054789	-0.34475816603363946	-0.24224763288596832	1.829111246433501	-0.35824727186314365																-0.20231661017300875	1.8330411848391186	-0.33104698221763945	-0.2156355583940776	1.735031003932713	-0.3817969892292955	-0.208282357781636	1.5851157456932816	-0.5464621006477501	-0.1928781326095453	1.5833612364396699	-0.5315549901396907	-0.18913842744403092	1.5918248455800341	-0.5316686431141493	-0.20265804162838272	1.572703508104972	-0.5463082002420341	-0.22705939633912317	1.9831576471487402	-0.35994016322577843	-0.2116152655016354	2.03346290191525	-0.45604785354078387	-2.026510447998863	1.9022644156920652	1.6678201796591972	-0.25474096055051043	1.9017506397614237	-0.39495128452636147	-0.2576363796836763	1.825668360698243	-0.4215946687338442	-0.2109802965672988	1.9825820407034402	-0.3422247102619758	-0.16466249575426145	1.9302769006243181	-0.3464257310025421	-1.8256501705176804	1.8925482392244761	1.3225049860000886
55	1.8333333333333333	-0.2217593386820463	1.8331084062350531	-0.34504257164550134	-0.2407954051610258	1.8298780937467911	-0.3554829166971195																-0.20090928862031762	1.833706650155382	-0.3280758741433921	-0.2156355583940776	1.735031003932713	-0.3817969892292955	-0.208282357781636	1.5851157456932816	-0.5464621006477501	-0.1928781326095453	1.5833612364396699	-0.5315549901396907	-0.18913842744403092	1.5918248455800341	-0.5316686431141493	-0.20265804162838272	1.572703508104972	-0.5463082002420341	-0.22694294814291074	1.981774488951227	-0.35947825900452846	-0.2114971744425804	2.0345711521838132	-0.4558750438154382	-2.0269139586605296	1.9021988415235873	1.6685360581863378	-0.25573594921022047	1.9009738282267177	-0.38973795968630304	-0.2556385868615764	1.8308043332361452	-0.41674109361951867	-0.20912008078327587	1.9826157717089439	-0.3444057756369565	-0.16265269059759804	1.930606710036921	-0.34874725914732585	-1.8256501705176804	1.8925482392244761	1.3225049860000886
